<?xml version="1.0" encoding="UTF-8"?>
<svg width="100" height="100" viewBox="0 0 100 100" xmlns="http://www.w3.org/2000/svg">
  <circle cx="50" cy="50" r="45" fill="#E61C2B" fill-opacity="0.8"/>
  <path fill="#FFF" d="M50 20
    C 65 20, 75 35, 75 50
    C 75 65, 65 80, 50 80
    C 35 80, 25 65, 25 50
    C 25 35, 35 20, 50 20
    M 35 45
    L 45 45
    L 45 55
    L 35 55
    Z
    M 55 45
    L 65 45
    L 65 55
    L 55 55
    Z
    M 35 65
    C 35 65, 50 75, 65 65" />
  <path fill="#E61C2B" fill-opacity="0.8" d="M20 15
    C 20 15, 40 5, 80 15
    L 75 25
    C 75 25, 50 20, 25 25
    Z" />
</svg> 