<?xml version="1.0" encoding="UTF-8"?>
<svg width="200" height="200" viewBox="0 0 200 200" xmlns="http://www.w3.org/2000/svg">
  <defs>
    <pattern id="narutoPattern" x="0" y="0" width="100" height="100" patternUnits="userSpaceOnUse">
      <!-- Leaf Symbol -->
      <path fill="#FF8614" fill-opacity="0.1" d="M25 5
        C 25 5, 45 15, 45 25
        C 45 35, 35 45, 25 45
        C 15 45, 5 35, 5 25
        C 5 15, 25 5, 25 5
        M 25 12
        C 25 12, 38 20, 38 25
        C 38 30, 30 38, 25 38
        C 20 38, 12 30, 12 25
        C 12 20, 25 12, 25 12
        L 25 18
        L 32 25
        L 25 32
        L 18 25
        Z" />
      
      <!-- Spiral Symbol -->
      <path fill="#FF8614" fill-opacity="0.1" d="M75 25
        C 85 25, 95 35, 95 45
        C 95 55, 85 65, 75 65
        C 65 65, 55 55, 55 45
        C 55 35, 65 25, 75 25
        M 75 35
        C 80 35, 85 40, 85 45
        C 85 50, 80 55, 75 55
        C 70 55, 65 50, 65 45
        C 65 40, 70 35, 75 35
        L 75 40
        A 5 5 0 0 1 75 50
        A 5 5 0 0 1 75 40" />
    </pattern>
  </defs>
  
  <rect x="0" y="0" width="200" height="200" fill="url(#narutoPattern)" />
</svg> 