<?xml version="1.0" encoding="UTF-8"?>
<svg width="100" height="100" viewBox="0 0 100 100" xmlns="http://www.w3.org/2000/svg">
  <!-- Hat Base -->
  <path fill="#FFD700" d="M10 50
    C 10 30, 30 20, 50 20
    C 70 20, 90 30, 90 50
    C 90 60, 70 65, 50 65
    C 30 65, 10 60, 10 50
    Z"/>
  
  <!-- Hat Top -->
  <path fill="#CD853F" d="M20 50
    C 20 35, 35 30, 50 30
    C 65 30, 80 35, 80 50
    C 80 55, 65 60, 50 60
    C 35 60, 20 55, 20 50
    Z"/>
  
  <!-- Hat Band -->
  <path fill="#E61C2B" d="M15 50
    C 15 45, 30 40, 50 40
    C 70 40, 85 45, 85 50
    C 85 55, 70 52, 50 52
    C 30 52, 15 55, 15 50
    Z"/>
</svg> 